# xmcd
#
# Track frame offsets:
#	150
#	15611
#	38745
#	56630
#	76710
#	95865
#	120426
#	143201
#	161731
#	185002
#	199284
#	214539
#	232064
#	250704
#	269074
#	284407
#	300150
#	318712
#	336924
#
# Disc length: 4762
#
# Revision: 2
# Processed by: cddbd v1.5.1PL0 Copyright (c) Steve Scherf et al.
# Submitted via: audiograbber 1.82.01
# Normalized: r1:DSETVAR1,TDELIM( - )
#
DISCID=18129813
DTITLE=Various Artist - Love Emotions France
DYEAR=1900
DGENRE=
TTITLE0=F.Balery - Le Grand Besoin D'Amour
TTITLE1=Mylene Farmer and Jean-Lous Murat - Regrets
TTITLE2=F.Feldman - Magic Boul Vard
TTITLE3=Joe Dassin - L'ete Indien
TTITLE4=D.Lavoie - Lis S'Ament
TTITLE5=Phil Barney - Un Enfant De Toi
TTITLE6=Desireless - Tombee D'Une Montagne
TTITLE7=Guesch Patti - Etienne
TTITLE8=France Gall - Eiia, Eiie L'a
TTITLE9=Helene - Pour L'Amour D'Un Garcon
TTITLE10=Frederic Franconis - Fanny Fanny
TTITLE11=Vanessa Paradis - Joe Le Taxi
TTITLE12=Nino Ferrer - La Desabusion
TTITLE13=F.Feldman - Les Valses De Vienne
TTITLE14=Joe Dassin - Et Si Tu N'Existas Pas
TTITLE15=Helene - Amour Secret
TTITLE16=Bibie - Tout Doucement
TTITLE17=Encore - Le Paradis
TTITLE18=Mylene Farmer - Mylene S'En Fout
EXTD=
EXTT0=
EXTT1=
EXTT2=
EXTT3=
EXTT4=
EXTT5=
EXTT6=
EXTT7=
EXTT8=
EXTT9=
EXTT10=
EXTT11=
EXTT12=
EXTT13=
EXTT14=
EXTT15=
EXTT16=
EXTT17=
EXTT18=
PLAYORDER=
